<?xml version="1.0" standalone="no"?>
<!DOCTYPE svg PUBLIC "-//W3C//DTD SVG 20010904//EN"
 "http://www.w3.org/TR/2001/REC-SVG-20010904/DTD/svg10.dtd">
<svg version="1.0" xmlns="http://www.w3.org/2000/svg"
 width="512.000000pt" height="512.000000pt" viewBox="0 0 512.000000 512.000000"
 preserveAspectRatio="xMidYMid meet">
<metadata>
Created by potrace 1.14, written by Peter Selinger 2001-2017
</metadata>
<g transform="translate(0.000000,512.000000) scale(0.100000,-0.100000)"
fill="#000000" stroke="none">
<path d="M0 2560 l0 -2560 1278 0 c788 0 1271 4 1262 10 -8 5 -508 292 -1110
638 l-1095 629 0 1283 0 1283 1095 629 c602 346 1102 633 1110 638 9 6 -474
10 -1262 10 l-1278 0 0 -2560z"/>
<path d="M2580 5110 c8 -5 508 -292 1110 -638 l1095 -629 0 -1283 0 -1283
-1095 -629 c-602 -346 -1102 -633 -1110 -638 -9 -6 481 -10 1263 -10 l1277 0
0 2560 0 2560 -1277 0 c-782 0 -1272 -4 -1263 -10z"/>
<path d="M1505 4375 l-1050 -603 0 -1212 0 -1212 1053 -604 1052 -604 1053
604 1052 604 0 1212 0 1212 -1045 600 c-575 330 -1049 602 -1055 603 -5 2
-482 -268 -1060 -600z m1630 -159 c167 -27 521 -120 547 -145 6 -5 -119 -673
-146 -787 -4 -14 -26 -30 -72 -49 l-67 -29 -41 24 c-109 61 -255 132 -348 168
-164 62 -230 77 -348 77 -92 0 -111 -3 -154 -25 -90 -45 -117 -117 -74 -200
40 -78 75 -99 568 -338 275 -134 394 -208 492 -309 128 -130 193 -234 230
-372 17 -61 21 -105 21 -226 0 -130 -3 -163 -26 -247 -73 -275 -258 -498 -537
-651 -364 -200 -913 -229 -1510 -83 -200 50 -320 89 -320 106 0 25 138 839
143 847 3 4 25 19 50 32 l44 24 117 -78 c342 -226 778 -347 959 -267 120 53
137 174 37 272 -59 58 -123 95 -311 181 -409 186 -563 273 -677 383 -176 168
-257 338 -269 566 -31 579 401 1040 1065 1135 127 18 488 13 627 -9z"/>
</g>
</svg>
